<?xml version="1.0" standalone="no"?>
<!DOCTYPE svg PUBLIC "-//W3C//DTD SVG 20010904//EN"
 "http://www.w3.org/TR/2001/REC-SVG-20010904/DTD/svg10.dtd">
<svg version="1.0" xmlns="http://www.w3.org/2000/svg"
 width="700.000000pt" height="700.000000pt" viewBox="0 0 700.000000 700.000000"
 preserveAspectRatio="xMidYMid meet">
<metadata>
Created by potrace 1.14, written by Peter Selinger 2001-2017
</metadata>
<g transform="translate(0.000000,700.000000) scale(0.100000,-0.100000)"
fill="#000000" stroke="none">
<path d="M3497 6464 c-1 -1 -45 -5 -97 -8 -52 -4 -102 -8 -110 -11 -8 -2 -37
-6 -65 -10 -118 -15 -286 -56 -454 -111 -108 -36 -112 -37 -251 -100 -243
-110 -518 -294 -695 -465 -33 -32 -69 -66 -80 -76 -21 -19 -110 -116 -160
-173 -236 -273 -469 -693 -574 -1035 -46 -151 -95 -371 -107 -485 -2 -19 -6
-46 -8 -60 -5 -23 -13 -101 -22 -210 -5 -63 -5 -455 0 -510 9 -99 18 -186 21
-210 2 -14 7 -47 11 -75 3 -27 8 -59 10 -70 2 -11 9 -49 15 -85 6 -36 26 -127
45 -204 174 -703 515 -1231 1004 -1555 193 -128 479 -251 693 -297 78 -17 177
-35 216 -40 25 -2 76 -8 112 -12 114 -14 388 -7 519 13 52 7 116 17 130 20
373 75 696 208 1015 420 519 345 893 802 1173 1436 109 248 232 618 256 770 3
20 8 42 10 50 6 15 11 41 26 139 18 107 18 113 24 175 4 33 9 85 12 115 11
118 5 434 -11 540 -2 14 -7 50 -10 80 -8 57 -11 78 -20 120 -3 14 -7 35 -9 47
-3 12 -16 66 -30 120 -158 599 -547 1099 -1086 1395 -132 72 -157 85 -250 125
-223 96 -475 172 -657 198 -21 4 -63 10 -93 15 -30 5 -91 12 -135 16 -79 6
-363 13 -368 8z m323 -1028 c87 -8 146 -15 243 -31 146 -25 360 -97 492 -166
191 -100 415 -290 512 -434 294 -437 272 -1063 -52 -1465 -116 -144 -290 -287
-465 -382 -124 -68 -389 -152 -545 -172 -27 -4 -81 -11 -119 -17 -38 -5 -121
-12 -185 -15 -64 -3 -118 -8 -119 -9 -2 -2 -6 -34 -8 -72 -11 -205 -20 -258
-51 -304 -40 -59 -119 -107 -220 -133 -180 -47 -293 14 -307 165 -10 96 -30
890 -41 1573 -4 240 -3 262 15 296 51 100 203 159 400 154 112 -2 167 -18 206
-59 46 -49 57 -105 54 -290 -2 -169 -3 -203 -15 -545 -4 -118 -8 -258 -9 -310
-1 -109 -13 -100 111 -86 40 4 87 11 105 17 18 5 45 11 59 14 57 10 190 59
284 105 389 187 570 452 580 845 2 119 -31 253 -87 348 -15 26 -28 50 -28 53
0 3 -27 39 -61 80 -167 205 -445 343 -760 379 -49 5 -307 6 -384 1 -363 -25
-628 -102 -875 -255 -92 -57 -261 -183 -325 -242 -101 -93 -122 -111 -155
-134 -72 -50 -192 -34 -235 31 -32 49 -27 145 12 224 39 77 71 117 179 225
186 185 347 292 644 428 112 52 351 130 435 143 22 3 43 8 46 10 4 2 24 6 45
9 22 3 48 8 59 10 11 2 65 7 120 11 55 3 101 7 102 8 5 4 273 -2 343 -8z
m-441 -3448 c103 -50 161 -144 161 -260 0 -189 -217 -290 -412 -192 -110 55
-151 198 -93 321 66 142 209 196 344 131z"/>
</g>
</svg>
